Coordinates
version=1
nRows=21
nColumns=22
inDegrees=yes

Units are S.I. units (second, meters, Newtons, ...)
If the header above contains a line with 'inDegrees', this indicates whether rotational values are in degrees (yes) or radians (no).

endheader
time	pelvis_tilt	pelvis_list	pelvis_rotation	pelvis_tx	pelvis_ty	pelvis_tz	hip_flexion_r	hip_adduction_r	hip_rotation_r	knee_angle_r	ankle_angle_r	subtalar_angle_r	hip_flexion_l	hip_adduction_l	hip_rotation_l	knee_angle_l	ankle_angle_l	subtalar_angle_l	lumbar_extension	lumbar_bending	lumbar_rotation
      4.10000000	     -1.16198661	      2.63959149	     76.36004610	      0.75992891	      1.06770722	      0.22639180	     18.10525804	     -2.59864860	      5.74331887	    -11.32349370	      6.99271831	      6.87983037	     -6.25645734	      8.15988811	      8.65708745	    -12.36814869	     15.04019373	     -7.82879061	     -5.37722232	     -4.08642190	     -7.50945731
      4.11000000	     -0.99056574	      2.59156059	     76.69215990	      0.76259176	      1.06696205	      0.22017095	     17.89588291	     -2.25915718	      6.00327733	    -10.52843708	      7.00073836	      6.87763450	     -6.42207528	      7.88543430	      8.97833185	    -12.82977030	     15.45955328	     -7.84121442	     -5.26383066	     -3.86896315	     -7.42890928
      4.12000000	     -0.80389843	      2.58703780	     77.02928509	      0.76527574	      1.06629661	      0.21383232	     17.64217950	     -1.92358003	      6.21806602	     -9.93072972	      7.03595257	      6.78664208	     -6.64764941	      7.59632055	      9.25681496	    -13.27324586	     15.82422915	     -7.79535733	     -5.18863661	     -3.63904295	     -7.38707810
      4.13000000	     -0.65016393	      2.53277898	     77.34973369	      0.76797187	      1.06553540	      0.20749909	     17.49807277	     -1.60663855	      6.44386645	     -9.59085618	      7.00046476	      6.67246329	     -6.80767857	      7.33181604	      9.54053099	    -13.72480079	     16.20734870	     -7.77264476	     -5.04711296	     -3.43171503	     -7.33215794
      4.14000000	     -0.48708210	      2.49843463	     77.68953235	      0.77066274	      1.06483443	      0.20106426	     17.33268930	     -1.29348296	      6.61473078	     -9.43341815	      6.92608550	      6.35128891	     -6.99429637	      7.05248367	      9.79494364	    -14.17051192	     16.52964412	     -7.64012935	     -4.92011663	     -3.21218169	     -7.32332309
      4.15000000	     -0.34837044	      2.42528371	     78.02513653	      0.77335635	      1.06408217	      0.19463864	     17.25313211	     -0.99373381	      6.78898859	     -9.50138544	      6.71629258	      5.99996702	     -7.12881321	      6.79072660	     10.05805362	    -14.62321665	     16.86262989	     -7.51803437	     -4.74648060	     -3.00775169	     -7.32277704
      4.16000000	     -0.21731050	      2.33623161	     78.37295818	      0.77603584	      1.06334358	      0.18821190	     17.20667822	     -0.70342956	      6.93061072	     -9.73297068	      6.34599931	      5.58307535	     -7.22939991	      6.53147468	     10.32131815	    -15.09935772	     17.16548332	     -7.37329005	     -4.55775886	     -2.80996472	     -7.32780059
      4.17000000	     -0.06763450	      2.23912978	     78.74070479	      0.77867825	      1.06266397	      0.18177362	     17.15877734	     -0.40245456	      7.07490012	    -10.07216324	      5.81086759	      5.28086859	     -7.30829773	      6.24951751	     10.58643424	    -15.60091452	     17.40421340	     -7.27939327	     -4.36755707	     -2.58285781	     -7.36446528
      4.18000000	      0.03995876	      2.13575919	     79.11941557	      0.78130046	      1.06201718	      0.17538376	     17.16520575	     -0.14247697	      7.17789826	    -10.56420376	      5.14076364	      4.60741034	     -7.35235084	      6.00855585	     10.85872201	    -16.12555432	     17.63660486	     -7.01578187	     -4.17274956	     -2.40498446	     -7.42601318
      4.19000000	      0.16785751	      2.03422760	     79.51352322	      0.78387314	      1.06149773	      0.16898687	     17.14595697	      0.12403977	      7.28149001	    -11.07763008	      4.35632563	      4.04520984	     -7.38191824	      5.74835185	     11.14256506	    -16.67952022	     17.79109770	     -6.77860952	     -3.98863176	     -2.20027494	     -7.49854395
      4.20000000	      0.31286318	      1.94154410	     79.91744682	      0.78641889	      1.06112276	      0.16258213	     17.11787187	      0.39391996	      7.32078160	    -11.62705104	      3.55687555	      3.50130843	     -7.40243677	      5.47203678	     11.42784330	    -17.26412244	     17.89037294	     -6.52368287	     -3.82047823	     -1.97856069	     -7.58525825
      4.21000000	      0.48009482	      1.86615419	     80.33007260	      0.78890545	      1.06093820	      0.15614118	     17.06537639	      0.66508628	      7.29201573	    -12.18340033	      2.83379918	      2.98579937	     -7.42589218	      5.17766006	     11.71582663	    -17.87431780	     17.91664767	     -6.23163975	     -3.67378354	     -1.72784002	     -7.67359062
      4.22000000	      0.67601082	      1.81775330	     80.74431568	      0.79137283	      1.06098252	      0.14964086	     16.97502782	      0.94318004	      7.17602435	    -12.73327584	      2.25438808	      2.52136507	     -7.46394615	      4.85733253	     11.99762288	    -18.50808706	     17.85496118	     -5.88064719	     -3.55354459	     -1.44912892	     -7.75823481
      4.23000000	      0.92007633	      1.79407155	     81.16716792	      0.79380448	      1.06125477	      0.14305014	     16.84030561	      1.24454327	      6.96443957	    -13.26670175	      1.87521167	      2.23885004	     -7.51701580	      4.48934402	     12.27458646	    -19.16882517	     17.73487951	     -5.56324237	     -3.45510367	     -1.11418569	     -7.86541475
      4.24000000	      1.15627643	      1.81897091	     81.57612727	      0.79625046	      1.06176309	      0.13638646	     16.63756061	      1.51904777	      6.68711611	    -13.76687217	      1.74409362	      1.94592345	     -7.59094478	      4.13798964	     12.53380857	    -19.87079859	     17.52371512	     -5.03656097	     -3.39527111	     -0.80488279	     -7.91215997
      4.25000000	      1.41779782	      1.85850193	     81.99925800	      0.79866376	      1.06246020	      0.12963639	     16.37980190	      1.79931189	      6.34993330	    -14.21056391	      1.79276125	      1.81618938	     -7.64973459	      3.75844661	     12.78498812	    -20.62192197	     17.24861036	     -4.50933299	     -3.33931679	     -0.46654066	     -7.97736103
      4.26000000	      1.68703128	      1.90926138	     82.43859736	      0.80105431	      1.06331175	      0.12282227	     16.06683467	      2.07554891	      5.98380366	    -14.58740987	      1.99478072	      1.75757725	     -7.67978193	      3.36884168	     13.03661345	    -21.43156605	     16.89970842	     -3.92309317	     -3.28149497	     -0.12117097	     -8.06886125
      4.27000000	      1.94386714	      1.97519747	     82.90051546	      0.80341794	      1.06429055	      0.11596162	     15.67858377	      2.32725147	      5.58260943	    -14.85877175	      2.29874285	      1.73625984	     -7.66127190	      2.98851197	     13.26367777	    -22.33320717	     16.48440598	     -3.21018356	     -3.22845195	      0.19991875	     -8.15141375
      4.28000000	      2.18799809	      2.05693982	     83.36234116	      0.80579137	      1.06536340	      0.10910895	     15.24169258	      2.56869862	      5.18598211	    -15.07147332	      2.65729214	      1.73583809	     -7.60227817	      2.61929946	     13.46319557	    -23.30767478	     15.98508654	     -2.29227144	     -3.18936126	      0.49848372	     -8.22403376
      4.29000000	      2.41789648	      2.13522737	     83.85050363	      0.80812984	      1.06647482	      0.10226061	     14.74589841	      2.79249559	      4.75858034	    -15.16253276	      3.03081753	      1.74411559	     -7.46322113	      2.25933592	     13.63651209	    -24.38517159	     15.40392380	     -1.29605108	     -3.13977785	      0.77339617	     -8.28827697
      4.30000000	      2.63838798	      2.21992031	     84.37281094	      0.81040158	      1.06759323	      0.09549276	     14.20192885	      3.00450535	      4.31420302	    -15.16509685	      3.38205652	      1.74850695	     -7.24577030	      1.90708682	     13.80240080	    -25.57540796	     14.74442868	     -0.23178643	     -3.10559968	      1.03438039	     -8.38118436
